<svg version="1.2" xmlns="http://www.w3.org/2000/svg" viewBox="0 0 512 512" width="32" height="32"><style></style><path fill-rule="evenodd" d="m166.5 99h8l52.4 135.2c28.9 74.4 54.1 139 56 143.6 2 4.5 3.9 8.2 4.4 8.2 0.4 0 1-3.3 1.3-7.2 0.3-4 0.4-61.7 0.2-128.3-0.3-103.6-0.6-121.6-1.8-125-0.8-2.2-3-5.4-4.7-7.2-2-2-5.3-3.9-8.5-4.8-2.9-0.8-8.6-1.8-19.8-3l-1.1-9h114.2l-0.6 9-7 0.6c-3.9 0.4-9.6 1.4-12.8 2.3-3.1 0.9-6.9 2.6-8.4 3.9-1.6 1.3-3.7 4.6-4.8 7.3-1.9 4.8-2 7.6-2.3 128.4-0.2 87.7 0 125.4 0.8 130 0.6 3.6 2 8.1 3.1 10 1 1.9 3.8 4.6 6.2 5.9 3.4 2 6.4 2.5 16.2 3.2 6.6 0.5 17.6 0.9 24.5 0.9 6.9 0 18.4-0.5 25.5-1 7.1-0.5 15.7-1.7 19-2.6 3.3-0.8 8.5-2.7 11.5-4.2 3-1.5 8-5.2 11.2-8.2 3.9-3.8 6.7-7.8 9.1-13 1.9-4.1 4.4-11.3 5.6-16 1.1-4.7 2.7-13 3.5-18.5 0.8-5.5 1.7-12.1 2.6-19.5h10.5l0.1 38.3c0 21 0.5 41.7 1.9 53.7h-274.5v-7.5l9.2-1.3c5.4-0.7 11.4-2.3 14.3-3.7 2.9-1.3 5.5-3.4 6.3-4.9 0.6-1.4 1.2-4.5 1.2-6.8 0-2.4-0.7-6.8-1.6-9.8-0.9-3-7.8-22.1-15.4-42.5-7.6-20.3-14.1-37.8-14.4-38.7-0.6-1.7-4-1.8-106.1-1.8l-10.9 28.2c-5.9 15.6-11.9 32.6-13.2 37.8-1.3 5.2-2.4 12.4-2.4 16 0 3.6 0.5 8.1 1.1 10 0.6 1.9 2.8 5.2 4.8 7.3 2 2.1 5.9 4.6 8.8 5.7 2.9 1.1 9.4 2.6 23.3 4.5v7.5h-85v-3.7c0-3.6 0.3-3.9 5.8-6.4 3.1-1.5 7.9-4.5 10.7-6.6 3-2.3 6.9-6.9 9.7-11.3 2.6-4.1 7.6-14.7 11-23.5 3.5-8.8 27.7-71.2 53.8-138.7zm-61.3 186.4c75.1 0.4 97.1 0.4 97.4 0.3 0.3-0.2-10.1-28.8-23.1-63.8-13-34.9-23.9-63.8-24.3-64.1-0.4-0.4-11.8 28.2-25.3 63.5z"/></svg>